#!OML:ASF H:\Terrain\Walking\May29\JustinRory\Justin.ASF
:FULLY-SPECIFIED
:DEGREES
369
root 8.30846 16.8816 -9.62462 0.122826 -7.94311 -7.91986 
lowerback 7.87826 5.11705 8.09118 
upperback 1.22627 7.56221 2.78773 
thorax -2.45674 3.69758 -2.29678 
lowerneck -18.5056 -1.74777 -10.4438 
upperneck 24.722 0.5281 1.07457 
head 11.097 -0.605329 2.21761 
rclavicle -4.94974e-14 -3.49861e-14 
rhumerus -29.6414 -16.8862 -76.9173 
rradius 31.212 
rwrist -6.06764 
rhand -11.3684 -337.044 
rfingers 7.12502 
rthumb 14.6656 -6.50573 
lclavicle -4.94974e-14 -3.49861e-14 
lhumerus -86.8362 50.6059 11.6584 
lradius 20.9055 
lwrist -7.66857 
lhand -8.31263 47.2073 
lfingers 7.12502 
lthumb 17.608 76.43 
rfemur -4.71674 -7.22228 32.9909 
rtibia 33.9392 
rfoot -28.2571 -25.4654 
rtoes -1.16608 
lfemur -8.31078 1.02382 1.92234 
ltibia 38.194 
lfoot -24.1469 -6.45586 
ltoes -10.5345 
370
root 8.43113 16.9359 -9.61976 0.563998 -5.13774 -5.32377 
lowerback 6.55391 4.39251 6.49654 
upperback 1.08852 6.34176 1.92247 
thorax -2.04966 3.11898 -2.12248 
lowerneck -18.4189 -1.91268 -10.4847 
upperneck 24.4925 0.238087 1.25778 
head 11.0106 -0.709041 2.24581 
rclavicle 6.44311e-14 2.06736e-14 
rhumerus -29.8548 -17.7935 -76.4887 
rradius 30.3966 
rwrist -5.32762 
rhand -10.7097 -337.251 
rfingers 7.12502 
rthumb 15.3001 -6.66524 
lclavicle 6.44311e-14 2.06736e-14 
lhumerus -86.3487 51.0669 13.0052 
lradius 20.8633 
lwrist -7.4241 
lhand -8.3965 46.8882 
lfingers 7.12502 
lthumb 17.5273 76.118 
rfemur -5.57988 -10.9235 29.466 
rtibia 34.045 
rfoot -27.933 -24.5064 
rtoes -3.76611 
lfemur -9.56591 -0.0298378 -1.74032 
ltibia 37.3406 
lfoot -24.5637 -5.37209 
ltoes -13.2576 
371
root 8.5137 16.9662 -9.61917 0.614384 -3.59651 -4.12328 
lowerback 5.93173 4.09225 5.77986 
upperback 1.11033 5.83867 1.57328 
thorax -1.75573 2.88362 -2.00507 
lowerneck -18.0954 -2.21524 -10.8954 
upperneck 24.2453 -0.246055 1.74626 
head 10.8881 -0.896963 2.41811 
rclavicle 1.01654e-13 7.95139e-15 
rhumerus -30.206 -19.061 -75.8134 
rradius 29.5758 
rwrist -4.19351 
rhand -10.2364 -337.5 
rfingers 7.12502 
rthumb 15.756 -6.87904 
lclavicle 1.01654e-13 7.95139e-15 
lhumerus -86.1912 51.7099 14.0688 
lradius 21.0318 
lwrist -7.61738 
lhand -8.6881 46.432 
lfingers 7.12502 
lthumb 17.2467 75.6867 
rfemur -5.7663 -12.8914 27.6664 
rtibia 34.0924 
rfoot -27.6416 -24.2032 
rtoes -5.54676 
lfemur -9.89644 -0.264167 -3.69846 
ltibia 36.6783 
lfoot -24.8458 -3.52457 
ltoes -21.0867 
372
root 8.56629 16.9873 -9.62454 0.711683 -2.82004 -3.83297 
lowerback 5.60612 4.01058 5.60361 
upperback 0.961475 5.70105 1.45356 
thorax -1.7435 2.8143 -2.00423 
lowerneck -17.9391 -2.48228 -10.9934 
upperneck 24.4923 -0.682341 2.01631 
head 10.9814 -1.07943 2.47313 
rclavicle -2.67365e-14 -2.38542e-14 
rhumerus -30.8245 -20.1632 -75.2372 
rradius 28.7535 
rwrist -3.23641 
rhand -10.231 -337.591 
rfingers 7.12502 
rthumb 15.7612 -6.96962 
lclavicle -2.67365e-14 -2.38542e-14 
lhumerus -84.5821 51.7172 16.4074 
lradius 21.0286 
lwrist -6.72535 
lhand -8.8923 45.9576 
lfingers 7.12502 
lthumb 17.0501 75.2294 
rfemur -5.94687 -13.326 27.2078 
rtibia 34.0657 
rfoot -27.5654 -24.3949 
rtoes -5.23893 
lfemur -9.94607 -0.739808 -4.42662 
ltibia 36.0379 
lfoot -24.9761 -2.62189 
ltoes -21.0593 
373
root 8.62815 17.0056 -9.63329 0.760587 -2.03035 -3.69421 
lowerback 5.41846 3.86778 5.62062 
upperback 0.81588 5.50361 1.34715 
thorax -1.7918 2.71218 -2.10394 
lowerneck -17.9932 -2.69227 -10.8698 
upperneck 24.9269 -1.00548 2.03122 
head 11.1779 -1.22689 2.4162 
rclavicle 9.7156e-14 1.90833e-14 
rhumerus -31.357 -21.007 -74.825 
rradius 27.8651 
rwrist -2.51017 
rhand -10.5448 -337.182 
rfingers 7.12502 
rthumb 15.4589 -6.58429 
lclavicle 9.7156e-14 1.90833e-14 
lhumerus -82.6223 51.5479 18.8171 
lradius 21.0167 
lwrist -5.61836 
lhand -8.64845 45.4047 
lfingers 7.12502 
lthumb 17.2848 74.656 
rfemur -6.02078 -13.8148 26.8583 
rtibia 33.9676 
rfoot -27.5508 -24.5026 
rtoes -4.92374 
lfemur -10.0967 -2.11587 -5.05301 
ltibia 35.6895 
lfoot -25.0732 -1.53203 
ltoes -18.0246 
374
root 8.69388 17.0279 -9.64388 0.875261 -1.22188 -3.4623 
lowerback 5.13644 3.73142 5.55776 
upperback 0.731296 5.30081 1.24789 
thorax -1.73332 2.61198 -2.14275 
lowerneck -17.7118 -2.84329 -11.1391 
upperneck 24.9224 -1.26587 2.35989 
head 11.1444 -1.32952 2.54417 
rclavicle 9.37767e-14 3.1408e-14 
rhumerus -31.7969 -22.0682 -74.2436 
rradius 27.012 
rwrist -1.22405 
rhand -10.2812 -336.912 
rfingers 7.12502 
rthumb 15.7128 -6.29377 
lclavicle 9.37767e-14 3.1408e-14 
lhumerus -80.3792 51.1925 21.9156 
lradius 21.4714 
lwrist -4.28358 
lhand -7.96862 45.0688 
lfingers 7.12502 
lthumb 17.939 74.2614 
rfemur -6.29664 -14.1476 26.4469 
rtibia 34.127 
rfoot -27.8499 -24.7032 
rtoes -4.48845 
lfemur -10.3491 -3.26206 -5.70794 
ltibia 35.2886 
lfoot -24.9006 -0.608489 
ltoes -17.3595 
375
root 8.74661 17.0469 -9.65344 1.06181 -0.645262 -3.01068 
lowerback 4.69272 3.72447 5.16252 
upperback 0.693987 5.24017 1.10665 
thorax -1.55068 2.58883 -2.03537 
lowerneck -17.3246 -2.9741 -11.5049 
upperneck 24.7321 -1.51546 2.79288 
head 11.0227 -1.41836 2.72615 
rclavicle -6.92019e-14 -1.82882e-14 
rhumerus -32.1498 -22.8185 -73.888 
rradius 26.3425 
rwrist -1.15888 
rhand -9.68547 -338.054 
rfingers 7.12502 
rthumb 16.2865 -7.39016 
lclavicle -6.92019e-14 -1.82882e-14 
lhumerus -76.0911 49.672 27.9594 
lradius 22.2684 
lwrist -1.12542 
lhand -7.30988 44.9351 
lfingers 7.12502 
lthumb 18.5728 74.0685 
rfemur -6.65432 -13.9278 25.9515 
rtibia 34.2341 
rfoot -28.2136 -25.0371 
rtoes -2.93626 
lfemur -10.6073 -3.78444 -6.44365 
ltibia 34.9466 
lfoot -24.7803 -0.193515 
ltoes -18.1339 
376
root 8.89665 17.0832 -9.68135 1.36697 1.57892 0.562144 
lowerback 4.3744 3.20474 3.05451 
upperback 0.560793 4.4121 -0.110711 
thorax -1.63113 2.18382 -2.06312 
lowerneck -16.9862 -3.2108 -11.8249 
upperneck 24.8612 -1.82416 2.88518 
head 11.0386 -1.5822 2.77081 
rclavicle 2.21148e-15 1.98785e-15 
rhumerus -32.6827 -23.588 -73.3422 
rradius 25.6643 
rwrist -1.57972 
rhand -8.67395 -340.393 
rfingers 7.12502 
rthumb 17.2603 -9.64665 
lclavicle 2.21148e-15 1.98785e-15 
lhumerus -82.4805 53.3279 20.5544 
lradius 21.9407 
lwrist -8.04953 
lhand -7.15562 43.2688 
lfingers 7.12502 
lthumb 18.7211 72.3879 
rfemur -6.84325 -18.301 20.7688 
rtibia 34.5007 
rfoot -27.1466 -22.8125 
rtoes -4.53675 
lfemur -11.2229 -4.99727 -11.0906 
ltibia 34.4819 
lfoot -24.3495 -0.773985 
ltoes -18.0321 
377
root 8.91763 17.1032 -9.6825 1.47172 1.91112 0.304846 
lowerback 4.18211 3.2777 2.86967 
upperback 0.37485 4.50229 0.123136 
thorax -1.74299 2.2265 -1.72095 
lowerneck -16.6765 -3.3622 -12.0246 
upperneck 25.1679 -1.99865 2.81658 
head 11.1142 -1.69918 2.75859 
rclavicle 1.31446e-14 3.57812e-15 
rhumerus -33.3613 -25.0815 -72.1839 
rradius 24.7366 
rwrist 0.032489 
rhand -7.38448 -341.489 
rfingers 7.12502 
rthumb 18.501 -10.6296 
lclavicle 1.31446e-14 3.57812e-15 
lhumerus -77.3107 52.4716 25.5107 
lradius 20.9616 
lwrist -6.18237 
lhand -6.91851 42.8565 
lfingers 7.12502 
lthumb 18.9492 71.9535 
rfemur -7.08871 -17.188 21.3218 
rtibia 34.6442 
rfoot -27.7948 -23.7316 
rtoes -2.74546 
lfemur -11.3695 -4.7514 -10.735 
ltibia 34.0637 
lfoot -23.8756 -1.73046 
ltoes -17.1248 
378
root 8.97017 17.1166 -9.68085 1.29742 2.8313 1.15922 
lowerback 4.07396 3.08393 1.89925 
upperback 0.476552 4.19346 -0.00606589 
thorax -1.65286 2.08109 -1.29016 
lowerneck -16.7312 -3.4728 -11.9338 
upperneck 25.3726 -2.09451 2.5458 
head 11.2092 -1.7733 2.63138 
rclavicle -3.47873e-16 -1.19271e-14 
rhumerus -33.7826 -26.3558 -71.3287 
rradius 23.9898 
rwrist 1.58875 
rhand -6.99104 -341.571 
rfingers 7.12502 
rthumb 18.8794 -10.6743 
lclavicle -3.47873e-16 -1.19271e-14 
lhumerus -71.5489 49.6907 33.9867 
lradius 22.3727 
lwrist -1.4629 
lhand -6.46056 42.6893 
lfingers 7.12502 
lthumb 19.3896 71.7426 
rfemur -6.7844 -17.5323 20.1082 
rtibia 34.784 
rfoot -28.0932 -24.0777 
rtoes -2.13905 
lfemur -11.1874 -4.56951 -11.7863 
ltibia 33.6488 
lfoot -23.5669 -3.04624 
ltoes -16.5437 
379
root 9.03029 17.1273 -9.67868 1.10238 3.90145 2.24135 
lowerback 4.01055 2.80734 0.821009 
upperback 0.608624 3.77226 -0.218573 
thorax -1.5516 1.87857 -0.87996 
lowerneck -16.8879 -3.57983 -11.8463 
upperneck 25.661 -2.18016 2.31587 
head 11.3554 -1.8406 2.521 
rclavicle 2.25621e-14 -1.19271e-15 
rhumerus -34.2178 -26.8009 -70.9441 
rradius 23.6105 
rwrist 2.06012 
rhand -7.79992 -341.212 
rfingers 7.12502 
rthumb 18.1013 -10.3897 
lclavicle 2.25621e-14 -1.19271e-15 
lhumerus -69.8058 49.2126 36.4712 
lradius 22.8879 
lwrist -1.12075 
lhand -5.82274 42.2141 
lfingers 7.12502 
lthumb 20.0027 71.2045 
rfemur -6.23069 -18.363 18.4743 
rtibia 34.6477 
rfoot -27.9381 -24.2519 
rtoes -1.97285 
lfemur -11.0624 -4.47821 -13.1389 
ltibia 33.4587 
lfoot -23.3957 -4.43477 
ltoes -16.122 
380
root 9.08143 17.1421 -9.69548 1.16416 4.62002 2.29951 
lowerback 3.89369 2.62465 0.714975 
upperback 0.570006 3.52431 -0.184085 
thorax -1.53943 1.75541 -0.768471 
lowerneck -17.1138 -3.63987 -11.9835 
upperneck 26.0987 -2.21493 2.41927 
head 11.5749 -1.87 2.58065 
rclavicle 1.74682e-14 -3.97569e-15 
rhumerus -34.5562 -27.1629 -70.5974 
rradius 23.218 
rwrist 2.69393 
rhand -8.66807 -341.008 
rfingers 7.12502 
rthumb 17.2659 -10.2607 
lclavicle 1.74682e-14 -3.97569e-15 
lhumerus -68.5837 49.4337 37.6468 
lradius 22.9122 
lwrist -1.86205 
lhand -5.34371 41.6559 
lfingers 7.12502 
lthumb 20.4631 70.5975 
rfemur -6.23375 -18.3551 18.3284 
rtibia 34.606 
rfoot -28.0517 -24.6545 
rtoes -0.510266 
lfemur -11.3597 -3.88646 -13.2343 
ltibia 33.2634 
lfoot -22.9382 -6.01617 
ltoes -16.7899 
381
root 9.12887 17.1585 -9.72009 1.21939 5.24416 2.20385 
lowerback 3.86729 2.57329 0.865722 
upperback 0.551422 3.46345 -0.101914 
thorax -1.54097 1.72428 -0.76455 
lowerneck -17.337 -3.85103 -12.3494 
upperneck 26.4575 -2.38006 2.47269 
head 11.7838 -1.98445 2.63815 
rclavicle 5.63306e-14 6.36111e-15 
rhumerus -34.9238 -27.9302 -69.9859 
rradius 22.7876 
rwrist 3.32869 
rhand -9.52887 -340.505 
rfingers 7.12502 
rthumb 16.4373 -9.82838 
lclavicle 5.63306e-14 6.36111e-15 
lhumerus -65.6001 48.6614 41.1323 
lradius 23.0294 
lwrist -1.35726 
lhand -4.91034 41.0456 
lfingers 7.12502 
lthumb 20.8796 69.942 
rfemur -6.31684 -17.9354 18.4811 
rtibia 34.5865 
rfoot -28.4753 -25.2216 
rtoes 2.10837 
lfemur -11.7406 -3.27678 -13.1604 
ltibia 33.1198 
lfoot -22.4528 -7.47574 
ltoes -17.9864 
